<svg xmlns="http://www.w3.org/2000/svg" id="Capa_1" enable-background="new 0 0 512 512" height="512" viewBox="0 0 512 512" width="512"><g><g><g><path d="m440.37 99.685h-368.742c-17.709 0-32.065 14.356-32.065 32.065v264.532h432.871v-264.532c.001-17.709-14.355-32.065-32.064-32.065z" fill="#57E500"/><path d="m71.628 131.75h368.742v216.435h-368.742z" fill="#00e5ca"/><path d="m400.29 324.137h-288.581c-8.854 0-16.032-7.178-16.032-16.032v-136.274c0-8.854 7.178-16.032 16.032-16.032h288.581c8.854 0 16.032 7.178 16.032 16.032v136.274c0 8.854-7.178 16.032-16.032 16.032z" fill="#3BF1DB"/><path d="m64.145 339.634v-238.815c-13.805 3.576-24.581 16.007-24.581 30.931v264.532h432.871v-40.616h-392.258c-8.84.001-16.032-7.192-16.032-16.032z" fill="#50c100"/><path d="m7.5 380.25c0 17.709 14.355 32.064 32.064 32.064h432.871c17.709 0 32.064-14.356 32.064-32.064z" fill="#dad8db"/></g><path d="m256 276.04c-17.708 0-32.064 14.355-32.064 32.064h64.128c0-17.708-14.356-32.064-32.064-32.064z" fill="#fff"/></g><g><path d="m504.5 372.75h-24.564v-241c0-21.816-17.749-39.564-39.564-39.564h-368.743c-21.816 0-39.564 17.749-39.564 39.564v241h-24.565c-4.142 0-7.5 3.358-7.5 7.5 0 21.816 17.749 39.564 39.564 39.564h432.871c21.816 0 39.564-17.749 39.564-39.564.001-4.142-3.357-7.5-7.499-7.5zm-32.064 32.064h-432.872c-10.931 0-20.217-7.176-23.394-17.064h55.46c4.142 0 7.5-3.358 7.5-7.5s-3.358-7.5-7.5-7.5h-24.566v-241c0-13.545 11.02-24.564 24.564-24.564h368.742c13.545 0 24.564 11.02 24.564 24.564v241h-361.242c-4.142 0-7.5 3.358-7.5 7.5s3.358 7.5 7.5 7.5h392.138c-3.178 9.889-12.464 17.064-23.394 17.064z"/><path d="m447.871 348.186v-216.436c0-4.142-3.358-7.5-7.5-7.5h-368.742c-4.142 0-7.5 3.358-7.5 7.5v216.436c0 4.142 3.358 7.5 7.5 7.5h368.742c4.142 0 7.5-3.358 7.5-7.5zm-15-7.5h-353.742v-201.436h353.742z"/><path d="m175.839 220.443c-4.142 0-7.5 3.358-7.5 7.5v16.032c0 4.143 3.358 7.5 7.5 7.5s7.5-3.357 7.5-7.5v-16.032c0-4.141-3.358-7.5-7.5-7.5z"/><path d="m151.793 211.397c.927 0 1.87-.173 2.783-.539l40.081-16.033c3.846-1.538 5.716-5.903 4.178-9.749s-5.901-5.716-9.749-4.178l-40.081 16.032c-3.846 1.538-5.716 5.903-4.178 9.749 1.173 2.934 3.989 4.718 6.966 4.718z"/><path d="m336.161 220.443c-4.142 0-7.5 3.358-7.5 7.5v16.032c0 4.143 3.358 7.5 7.5 7.5s7.5-3.357 7.5-7.5v-16.032c0-4.141-3.358-7.5-7.5-7.5z"/><path d="m317.343 194.826 40.081 16.033c.914.366 1.856.539 2.783.539 2.977 0 5.793-1.784 6.966-4.717 1.539-3.846-.332-8.211-4.178-9.749l-40.081-16.032c-3.848-1.539-8.211.332-9.749 4.178-1.538 3.845.333 8.21 4.178 9.748z"/><path d="m223.936 315.604h64.129c4.142 0 7.5-3.357 7.5-7.5 0-21.815-17.749-39.564-39.564-39.564s-39.564 17.749-39.564 39.564c-.001 4.143 3.356 7.5 7.499 7.5zm32.064-32.064c10.931 0 20.217 7.176 23.394 17.064h-46.788c3.177-9.888 12.463-17.064 23.394-17.064z"/></g></g></svg>