<?xml version="1.0" encoding="utf-8"?>
<!-- Generator: Adobe Illustrator 21.0.0, SVG Export Plug-In . SVG Version: 6.00 Build 0)  -->
<svg version="1.1" id="Capa_1" xmlns="http://www.w3.org/2000/svg" xmlns:xlink="http://www.w3.org/1999/xlink" x="0px" y="0px"
	 viewBox="0 0 512 272" style="enable-background:new 0 0 512 272;" xml:space="preserve">
<style type="text/css">
	.st0{fill:#3A1010;stroke:#000000;stroke-miterlimit:10;}
	.st1{fill:#BA4040;stroke:#000000;stroke-miterlimit:10;}
	.st2{fill:#F4E855;stroke:#000000;stroke-miterlimit:10;}
	.st3{fill:#4C43C9;stroke:#000000;stroke-miterlimit:10;}
</style>
<g id="Capa_1_1_">
	<path class="st0" d="M365.5,37.5c0,5-3,2-3,2c-11-14-33-15-33-15c-22-2-42,23-42,23c-7,26-13,137,1,161s64,32,64,32h-96
		c0,0,0-0.5-0.1-1.5c-0.1,1-0.1,1.5-0.1,1.5h-97c0,0,50.5-8,64.7-32c14.1-24,8.1-135,1-161c0,0-20.2-25-42.5-23c0,0-22.2,1-33.4,15
		c0,0-3,3-3-2c0,0,14.2-19,25.3-19c0,0,30.3-6,54.6,6c0,0,19.2,10.4,30.4,23c11.1-12.5,30.1-23,30.1-23c24-12,54-6,54-6
		C351.5,18.5,365.5,37.5,365.5,37.5z"/>
	<circle class="st0" cx="256" cy="16" r="11.5"/>
</g>
<path class="st1" d="M327.8,230.1c9.3-5.1,46.7-7.9,52.1,1.7s-23.4,28-32.7,33.2c-9.3,5.1-29.2,3.6-34.5-6.1
	C307.3,249.3,318.5,235.3,327.8,230.1z"/>
<path class="st1" d="M426.3,129.5c5.7,8.1,8.9,44.9-1.8,52.5s-31.1-16.8-36.9-24.8s-4-28.3,6.7-35.9
	C405,113.6,420.6,121.4,426.3,129.5z"/>
<path class="st1" d="M491.8,133c7.5,7.3,21.4,41.5,14.1,49.1c-7.3,7.5-32.9-14.4-40.5-21.7c-7.5-7.3-12.1-26.2-4.8-33.9
	C467.9,119,484.3,125.7,491.8,133z"/>
<path class="st1" d="M205.1,264.1c-9.6-1.3-38.1-22.7-36.4-34.5c1.7-11.8,32.9-9.6,42.6-8.1s23,15.4,21.4,27.1
	C230.9,260.3,214.8,265.5,205.1,264.1z"/>
<path class="st2" d="M125.7,204.7c-6.3,8.6-12.3,46.4-2.4,53.7c9.9,7.3,31.9-18.8,38.2-27.3c6.3-8.6,6.2-29.2-3.7-36.5
	C147.9,187.3,131.9,196.1,125.7,204.7z"/>
<path class="st2" d="M408.5,190.3c10.1-0.1,42.7,16.1,42.9,27.7c0.2,11.6-32.1,14.1-42.2,14.3c-10.1,0.1-26.1-11.3-26.3-22.9
	S398.4,190.4,408.5,190.3z"/>
<path class="st2" d="M362.3,176.5c-5.8,8.9-38.4,28.7-48.1,22.4c-9.6-6.3,7.4-36.3,13.2-45.2s24.7-16.7,34.2-10.4
	C371.4,149.6,368.2,167.5,362.3,176.5z"/>
<path class="st2" d="M140.3,159.3c-6.1,7.8-39,22.7-48.4,15.4c-9.4-7.2,8.2-33.9,14.2-41.7c6.1-7.8,25-12.9,34.5-5.6
	C150,134.6,146.3,151.5,140.3,159.3z"/>
<path class="st3" d="M440,251.8c1.2,4.2-11.8,11.7-16.1,12.9c-4.2,1.2-8.7-1.3-9.9-5.5c-1.2-4.2,1.3-8.7,5.5-9.9
	C423.8,248.1,438.8,247.6,440,251.8z"/>
<path class="st3" d="M307,125.2c4.4,0.7,5.7,15.6,5.1,20s-4.7,7.4-9.1,6.7s-7.4-4.7-6.7-9.1C296.9,138.4,302.6,124.5,307,125.2z"/>
<path class="st3" d="M197.6,113c4.4,0.2,7.3,14.9,7.1,19.4c-0.2,4.4-4,7.8-8.4,7.6s-7.8-4-7.6-8.4S193.2,112.8,197.6,113z"/>
<path class="st3" d="M195.7,161.4c4.3-1.1,11.3,12.2,12.4,16.4c1.1,4.3-1.5,8.6-5.8,9.7c-4.3,1.1-8.6-1.5-9.7-5.8
	S191.4,162.5,195.7,161.4z"/>
<path class="st3" d="M290.2,81.9c4.1-1.6,12.7,10.8,14.2,14.9c1.6,4.1-0.5,8.8-4.6,10.3c-4.1,1.6-8.8-0.5-10.3-4.6
	S286.1,83.5,290.2,81.9z"/>
<path class="st3" d="M84.5,113.5c4.2,1.4,2.9,16.4,1.5,20.6c-1.4,4.2-6,6.4-10.1,5s-6.4-6-5-10.1C72.3,124.9,80.4,112.1,84.5,113.5z
	"/>
<path class="st3" d="M59.5,154.6c3.1,3.1-4.9,15.9-8.2,19c-3.1,3.1-8.2,3-11.3-0.2c-3.1-3.1-3-8.2,0.2-11.3
	C43.4,159,56.4,151.5,59.5,154.6z"/>
<path class="st3" d="M391.6,54.1c-0.9,4.3-15.9,5-20.2,4c-4.3-0.9-7.1-5.1-6.3-9.4c0.9-4.3,5.1-7.1,9.4-6.3
	C378.9,43.5,392.5,49.8,391.6,54.1z"/>
<path class="st1" d="M170.3,75.3c0.1,9.7-17,41-28.9,41c-11.9,0-14.2-31.2-14.1-41s12-25,23.8-25C162.9,50.3,170.3,65.5,170.3,75.3z
	"/>
<path class="st1" d="M77.7,260.2c-8.9,3.9-44.3,0.8-49.1-10.2c-4.7-10.9,23-25.5,32-29.3c9-3.8,27.7,1,32.4,11.8
	C97.7,243.4,86.7,256.2,77.7,260.2z"/>
</svg>
